<svg width="86" height="86" viewBox="0 0 86 86" fill="none" xmlns="http://www.w3.org/2000/svg">
<path d="M84.0432 7.89805L78.4032 1.55285C78.9807 2.1311 79.4215 2.84686 79.6704 3.64723C79.6951 3.72692 79.7184 3.80731 79.7388 3.88841C79.7698 4.01111 79.7973 4.13522 79.8199 4.26145C79.8354 4.34536 79.8481 4.42998 79.8587 4.51531C79.8643 4.56185 79.87 4.60839 79.8742 4.65564C79.8918 4.82418 79.9003 4.99483 79.9003 5.1676V5.69719H79.8996V74.8421C79.8996 77.6649 77.6106 79.9539 74.787 79.9539H5.11183C3.70077 79.9539 2.42369 79.3827 1.4985 78.4583L7.8437 84.0983C7.8437 84.0983 7.8437 84.099 7.84511 84.0997C8.7703 85.0242 10.0474 85.5954 11.4584 85.5954H80.4285C83.252 85.5954 85.541 83.3064 85.541 80.4835V11.5128C85.541 10.101 84.9684 8.82325 84.0432 7.89805Z" fill="#930023"/>
<path d="M84.0433 7.89794L78.4032 1.55273C78.9808 2.13098 79.4215 2.84674 79.6704 3.64712C79.6951 3.7268 79.7184 3.80719 79.7388 3.88829C79.7699 4.01099 79.7974 4.1351 79.8199 4.26133C79.8355 4.34524 79.8481 4.42986 79.8587 4.51519C79.8644 4.56173 79.87 4.60827 79.8742 4.65552C79.8919 4.82406 79.9003 4.99471 79.9003 5.16748V5.69707H79.8996V74.842C79.8996 77.6648 77.6106 79.9538 74.7871 79.9538H5.11187C3.70081 79.9538 2.42373 79.3826 1.49854 78.4581L7.84374 84.0982C7.84374 84.0982 7.84374 84.0989 7.84515 84.0996C8.77034 85.0241 10.0474 85.5953 11.4585 85.5953H80.4285C83.2521 85.5953 85.5411 83.3063 85.5411 80.4834V11.5127C85.5411 10.1009 84.9685 8.82313 84.0433 7.89794Z" fill="#7E011F"/>
<path d="M79.8996 5.1662V74.8421C79.8996 77.6649 77.6106 79.954 74.787 79.954H5.11184C3.70078 79.954 2.4237 79.3828 1.49851 78.4583C0.572605 77.5331 0 76.2546 0 74.8421V5.1662C0 2.34337 2.28831 0.0543594 5.11184 0.0543594H74.787C75.7581 0.0543594 76.6663 0.325148 77.4392 0.795503C77.7897 1.00847 78.1134 1.26304 78.4018 1.55145L78.4032 1.55286C78.9807 2.13111 79.4215 2.84687 79.6704 3.64725C79.6951 3.72693 79.7177 3.80732 79.7388 3.88842C79.7698 4.01112 79.7973 4.13523 79.8199 4.26146C79.8347 4.34537 79.8474 4.42999 79.8587 4.51532C79.8643 4.56186 79.87 4.6084 79.8742 4.65565C79.8911 4.82348 79.8996 4.99414 79.8996 5.1662Z" fill="#EB002E"/>
<path d="M52.2671 67.8731C51.4512 67.4514 50.8215 66.8534 50.3779 66.0806C49.9343 65.3077 49.7129 64.4206 49.7129 63.4192V58.2249C49.7129 57.2087 49.9343 56.3181 50.3779 55.5529C50.8215 54.7878 51.4512 54.1934 52.2671 53.7717C53.083 53.35 54.0272 53.1384 55.1005 53.1384C56.1738 53.1384 57.0926 53.3457 57.9015 53.7611C58.7096 54.1764 59.3358 54.7413 59.7793 55.4563C60.2229 56.1721 60.445 56.9802 60.445 57.8814V58.0535C60.445 58.1254 60.4196 58.1861 60.3696 58.2361C60.3195 58.2862 60.2589 58.3116 60.1869 58.3116H58.2336C58.1617 58.3116 58.101 58.2869 58.051 58.2361C58.0009 58.1861 57.9755 58.1254 57.9755 58.0535V57.9463C57.9755 57.1734 57.7146 56.5374 57.192 56.036C56.6695 55.5353 55.9721 55.285 55.0991 55.285C54.2261 55.285 53.5251 55.5459 52.9955 56.0684C52.4659 56.591 52.2015 57.2813 52.2015 58.1395V63.5052C52.2015 64.3634 52.4807 65.0545 53.0385 65.5764C53.5963 66.0989 54.3191 66.3598 55.2063 66.3598C56.0934 66.3598 56.7407 66.1342 57.2344 65.6835C57.728 65.2329 57.9748 64.6138 57.9748 63.8268V62.4961C57.9748 62.4249 57.9388 62.3889 57.8676 62.3889H55.2274C55.1555 62.3889 55.0948 62.3643 55.0448 62.3135C54.9947 62.2634 54.9693 62.2028 54.9693 62.1308V60.5428C54.9693 60.4716 54.994 60.4109 55.0448 60.3601C55.0948 60.3101 55.1555 60.2847 55.2274 60.2847H60.1855C60.2567 60.2847 60.3174 60.3101 60.3682 60.3601C60.4182 60.4102 60.4436 60.4709 60.4436 60.5428V63.2902C60.4436 64.9361 59.9606 66.2167 58.9952 67.132C58.0291 68.048 56.7309 68.5057 55.0998 68.5057C54.0265 68.5057 53.0823 68.2948 52.2664 67.8724L52.2671 67.8731Z" fill="white"/>
<path d="M44.5195 68.1199L43.8115 65.8231C43.7826 65.766 43.7473 65.7371 43.7043 65.7371H38.0382C37.9952 65.7371 37.9592 65.766 37.931 65.8231L37.223 68.1199C37.18 68.263 37.0869 68.3343 36.9437 68.3343H34.7972C34.7111 68.3343 34.647 68.3096 34.604 68.2588C34.5609 68.2087 34.5539 68.134 34.5828 68.0332L39.2405 53.5241C39.2835 53.3809 39.3766 53.3097 39.5198 53.3097H42.203C42.3461 53.3097 42.4392 53.3816 42.4822 53.5241L47.1611 68.0332C47.1752 68.0621 47.1822 68.0973 47.1822 68.1403C47.1822 68.2694 47.1033 68.3336 46.946 68.3336H44.7994C44.6563 68.3336 44.5632 68.2623 44.5202 68.1192L44.5195 68.1199ZM38.6813 63.7837H43.0386C43.1246 63.7837 43.1528 63.7407 43.1246 63.6547L40.9139 56.4647C40.8998 56.4076 40.8779 56.3787 40.8497 56.3787C40.8215 56.3787 40.7997 56.4076 40.7856 56.4647L38.596 63.6547C38.5819 63.7407 38.6101 63.7837 38.682 63.7837H38.6813Z" fill="white"/>
<path d="M29.0443 53.3097H31.0188C31.09 53.3097 31.1507 53.3351 31.2014 53.3845C31.2515 53.4345 31.2769 53.4952 31.2769 53.5671V68.0762C31.2769 68.1481 31.2515 68.2087 31.2014 68.2588C31.1514 68.3089 31.0907 68.3343 31.0188 68.3343H29.0443C28.9724 68.3343 28.9117 68.3096 28.8617 68.2588C28.8116 68.2087 28.7862 68.1481 28.7862 68.0762V57.8384C28.7862 57.7954 28.7679 57.7672 28.7326 57.7524C28.6967 57.7382 28.6713 57.7523 28.6572 57.7954L25.974 61.9164C25.902 62.0314 25.8019 62.0885 25.6736 62.0885H24.6863C24.5573 62.0885 24.4571 62.0314 24.3859 61.9164L21.6815 57.8172C21.6674 57.7742 21.642 57.7601 21.6061 57.7742C21.5701 57.7883 21.5525 57.8172 21.5525 57.8602V68.0769C21.5525 68.1488 21.5271 68.2094 21.477 68.2595C21.427 68.3096 21.3663 68.335 21.2944 68.335H19.3199C19.248 68.335 19.1873 68.3103 19.1372 68.2595C19.0872 68.2094 19.0625 68.1488 19.0625 68.0769V53.5678C19.0625 53.4966 19.0872 53.436 19.1372 53.3852C19.1873 53.3351 19.248 53.3104 19.3199 53.3104H21.2944C21.4234 53.3104 21.5229 53.3675 21.5948 53.4818L25.0932 58.7833C25.1214 58.8122 25.1503 58.8263 25.1792 58.8263C25.2081 58.8263 25.2293 58.8122 25.2434 58.7833L28.7418 53.4818C28.813 53.3675 28.9138 53.3104 29.0422 53.3104L29.0443 53.3097Z" fill="white"/>
<path d="M52.4485 33.6022H60.6624C60.7407 33.6022 60.8042 33.6656 60.8042 33.7439L60.8169 41.8062C60.8169 44.6833 59.8846 46.8581 58.0194 48.3305C56.1542 49.8036 53.7623 50.5398 50.8421 50.5398C47.922 50.5398 45.6245 49.8657 43.717 48.5181C41.8088 47.1705 40.8554 45.1311 40.8554 42.4007V18.4211C40.8554 15.6822 41.8067 13.6385 43.7106 12.2902C45.6139 10.9419 47.9911 10.2685 50.8428 10.2685C53.6946 10.2685 56.1549 11.0026 58.0201 12.4715C59.8846 13.9404 60.8176 16.1046 60.8176 18.9641C60.8176 18.9887 60.8049 27.1427 60.8049 27.1427C60.8049 27.221 60.7414 27.2845 60.6631 27.2845H52.4492C52.2475 27.2845 52.0846 27.1209 52.0846 26.9199V18.512C52.0846 18.1848 51.9683 17.9006 51.7356 17.6595C51.4944 17.4268 51.2102 17.3104 50.883 17.3104C50.5558 17.3104 50.2886 17.4225 50.0566 17.6461C49.8238 17.8703 49.699 18.1418 49.6821 18.4599L49.6694 18.5247V42.2977L49.6821 42.3626C49.699 42.6813 49.8245 42.9486 50.0566 43.1637C50.2893 43.3879 50.5643 43.4993 50.883 43.4993C51.2018 43.4993 51.4944 43.383 51.7356 43.1503C51.9683 42.9091 52.0846 42.6249 52.0846 42.2977V33.9674C52.0846 33.7658 52.2482 33.6029 52.4492 33.6029H52.4485V33.6022Z" fill="white"/>
<path d="M30.3557 10.7851C31.7167 10.759 33.0735 11.0735 34.4253 11.7279C35.6051 12.3055 36.5352 13.1016 37.2157 14.1185C38.0598 15.3934 38.4949 17.1677 38.5203 19.4419V29.1451C38.4942 32.9263 37.1289 35.4805 34.4246 36.8069C33.0721 37.4705 31.7153 37.7885 30.355 37.7631H28.2395C28.0378 37.7631 27.8749 37.9267 27.8749 38.1277V49.8012C27.8749 50.0029 27.7113 50.1658 27.5103 50.1658H19.4283C19.2266 50.1658 19.0637 50.0022 19.0637 49.8012V11.1497C19.0637 10.948 19.2273 10.7851 19.4283 10.7851H30.3557ZM30.3684 18.6401C30.3684 18.3474 30.2457 18.0978 30.0003 17.8905C29.7549 17.6839 29.4728 17.5802 29.1541 17.5802H28.2916C28.09 17.5802 27.9271 17.7438 27.9271 17.9448V30.0837C27.9271 30.2854 28.0907 30.4483 28.2916 30.4483H29.1541C29.3522 30.4483 29.5462 30.4159 29.7359 30.3517C29.9248 30.2868 30.0779 30.1775 30.1942 30.0224C30.3106 29.8672 30.3684 29.6564 30.3684 29.3891V18.6394V18.6401Z" fill="white"/>
</svg>
